<svg id="_x30_5_Jeans_1_" enable-background="new 0 0 64 64" height="512" viewBox="0 0 64 64" width="512" xmlns="http://www.w3.org/2000/svg"><path d="m56.5 60.4-6.3-43.9c-.6-3.5-.9-7.1-.9-10.8s0 0 0 0c0-1.5.1-3 .2-4.7 0-.3-.1-.5-.3-.8-.2-.1-.5-.2-.8-.2h-32.8c-.3 0-.5.1-.7.3s-.3.5-.3.8c.1 1.7.2 3.2.2 4.7 0 3.6-.3 7.3-.9 10.8l-6.4 43.8c-.1.9.1 1.7.7 2.4s1.6 1.2 2.7 1.2h9.7c1.6 0 3-1 3.3-2.5l8.1-34.4 8.1 34.4c.3 1.4 1.7 2.5 3.3 2.5h9.7c1 0 2-.4 2.7-1.2.6-.7.8-1.5.7-2.4zm-9.2-53.6c.1 3.4.4 6.8.9 10.1l.1.9c-3.2-2.1-5.8-6.1-7.1-11zm.1-4.8c-.1 1-.1 1.9-.1 2.8h-30.6c0-.9 0-1.8-.1-2.8zm-31.6 14.9c.6-3.3.9-6.7.9-10.1h6.1c-1.3 4.9-3.9 8.8-7.1 11zm6.2 44.2c-.1.6-.7.9-1.4.9h-9.7c-.5 0-.9-.2-1.1-.5-.1-.2-.3-.4-.3-.8l5.8-40.5c4.4-2.2 7.9-7.2 9.6-13.5h9.5v7.5c0 1.3-1.1 2.5-2.5 2.8-.5.1-.8.5-.8 1v4.6zm32.3.4c-.3.3-.7.5-1.2.5h-9.7c-.7 0-1.2-.4-1.4-.9l-9-38.4v-3.9c2-.7 3.3-2.5 3.3-4.5v-7.5h2.8c1.6 6.3 5.1 11.3 9.6 13.5l5.8 40.5c.1.3-.1.5-.2.7zm-23.3-52.1c0-.6.5-1 1-1s1 .4 1 1-.5 1-1 1-1-.5-1-1zm0 3.8c0-.6.5-1 1-1s1 .4 1 1-.5 1-1 1-1-.4-1-1z"/></svg>